<svg viewBox="0 0 320 100" fill="#ED1C24" xmlns="http://www.w3.org/2000/svg">
<path opacity="0.4" d="M56.2596 49.9999C56.2596 53.4572 53.457 56.2598 49.9996 56.2598C46.5421 56.2598 43.7395 53.4572 43.7395 49.9999C43.7395 46.5426 46.5421 43.7398 49.9996 43.7398C53.457 43.7398 56.2596 46.5426 56.2596 49.9999Z" />
<path opacity="0.4" d="M56.2596 6.26022C56.2596 9.71753 53.457 12.5204 49.9996 12.5204C46.5421 12.5204 43.7395 9.71753 43.7395 6.26022C43.7395 2.80291 46.5421 7.62939e-05 49.9996 7.62939e-05C53.457 7.62939e-05 56.2596 2.80291 56.2596 6.26022Z" />
<path d="M56.2596 28.13C56.2596 31.5873 53.457 34.3901 49.9996 34.3901C46.5421 34.3901 43.7395 31.5873 43.7395 28.13C43.7395 24.6726 46.5421 21.8698 49.9996 21.8698C53.457 21.8698 56.2596 24.6726 56.2596 28.13Z" />
<path d="M33.551 8.9901C35.2797 11.9844 34.254 15.8129 31.2597 17.5418C28.2655 19.2702 24.4367 18.2445 22.7081 15.2502C20.9794 12.2562 22.0055 8.42745 24.9994 6.69879C27.9937 4.97013 31.8224 5.99604 33.551 8.9901Z" />
<path d="M15.2498 22.7086C18.244 24.4372 19.2697 28.266 17.5411 31.2602C15.8124 34.2543 11.9837 35.2802 8.98963 33.5515C5.99536 31.8229 4.96945 27.9942 6.69811 25.0001C8.42697 22.0058 12.2555 20.9799 15.2498 22.7086Z" />
<path d="M6.25994 43.7398C9.71725 43.7398 12.5201 46.5426 12.5201 49.9999C12.5201 53.4572 9.71725 56.2598 6.25994 56.2598C2.80262 56.2598 0 53.4572 0 49.9999C0 46.5426 2.80262 43.7398 6.25994 43.7398Z" />
<path d="M8.98947 66.4484C11.9837 64.7198 15.8123 65.7454 17.5411 68.7397C19.2698 71.734 18.2439 75.5625 15.2496 77.2914C12.2556 79.02 8.42682 77.9939 6.69816 74.9999C4.96951 72.0058 5.99521 68.1771 8.98947 66.4484Z" />
<path d="M22.709 84.7494C24.4376 81.7551 28.2664 80.7294 31.2606 82.4581C34.2547 84.1867 35.2806 88.0155 33.5519 91.0095C31.8233 94.0036 27.9946 95.0297 25.0003 93.301C22.0062 91.5722 20.9803 87.7436 22.709 84.7494Z" />
<path d="M43.7395 93.7393C43.7395 90.2822 46.5421 87.4794 49.9994 87.4794C53.457 87.4794 56.2596 90.2822 56.2596 93.7393C56.2596 97.1967 53.457 99.9995 49.9994 99.9995C46.5421 99.9995 43.7395 97.1967 43.7395 93.7393Z" />
<path d="M66.4474 91.0096C64.7188 88.0153 65.7445 84.1868 68.7387 82.4579C71.733 80.7293 75.5617 81.7552 77.2904 84.7494C79.0191 87.7435 77.9929 91.5722 74.9991 93.3009C72.0048 95.0295 68.1761 94.0036 66.4474 91.0096Z" />
<path d="M84.7487 77.2913C81.7545 75.5627 80.7288 71.7339 82.4574 68.7397C84.1861 65.7456 88.0148 64.7197 91.0089 66.4484C94.0032 68.1772 95.0291 72.0058 93.3004 74.9998C91.5715 77.9941 87.743 79.02 84.7487 77.2913Z" />
<path opacity="0.4" d="M93.7401 56.2598C90.2828 56.2598 87.48 53.4572 87.48 49.9999C87.48 46.5424 90.2828 43.7398 93.7401 43.7398C97.1974 43.7398 100 46.5424 100 49.9999C100 53.4572 97.1974 56.2598 93.7401 56.2598Z" />
<path opacity="0.4" d="M91.009 33.5514C88.0148 35.2801 84.1862 34.2542 82.4574 31.2601C80.7287 28.2658 81.7546 24.4371 84.7489 22.7085C87.743 20.9798 91.5717 22.0057 93.3003 25C95.029 27.994 94.0033 31.8228 91.009 33.5514Z" />
<path opacity="0.4" d="M77.2904 15.2502C75.5617 18.2445 71.733 19.2702 68.7387 17.5418C65.7446 15.8129 64.7187 11.9844 66.4474 8.9901C68.176 5.99604 72.0048 4.97013 74.999 6.69879C77.9931 8.42745 79.019 12.2562 77.2904 15.2502Z" />
<path d="M34.1902 33.6436C37.1843 35.3723 38.2102 39.2008 36.4815 42.1951C34.7528 45.1893 30.9241 46.215 27.9301 44.4864C24.9358 42.7577 23.9099 38.9292 25.6385 35.9349C27.3674 32.9406 31.1959 31.9149 34.1902 33.6436Z" />
<path d="M27.9299 55.5133C30.9242 53.7847 34.7527 54.8104 36.4816 57.8046C38.2102 60.7989 37.1841 64.6276 34.19 66.3563C31.196 68.0849 27.3672 67.059 25.6386 64.065C23.9099 61.0707 24.9356 57.242 27.9299 55.5133Z" />
<path d="M43.7395 71.8697C43.7395 68.4124 46.5421 65.6098 49.9994 65.6098C53.457 65.6098 56.2596 68.4124 56.2596 71.8697C56.2596 75.3271 53.457 78.1299 49.9994 78.1299C46.5421 78.1299 43.7395 75.3271 43.7395 71.8697Z" />
<path d="M65.809 66.3561C62.8149 64.6275 61.789 60.7987 63.5177 57.8045C65.2464 54.8104 69.0751 53.7845 72.0692 55.5132C75.0634 57.2418 76.0893 61.0706 74.3607 64.0648C72.6318 67.0591 68.8033 68.0848 65.809 66.3561Z" />
<path d="M72.0693 44.4864C69.075 46.215 65.2465 45.1893 63.5176 42.1951C61.789 39.2008 62.8151 35.3723 65.8092 33.6436C68.8032 31.9149 72.632 32.9406 74.3606 35.9349C76.0893 38.9292 75.0636 42.7577 72.0693 44.4864Z" />
<path d="M292.564 41.4373H304.437V47.6499H304.642C307.196 42.9496 310.527 40.4768 315.759 40.4768C317.087 40.4768 318.62 40.579 319.662 40.8856V51.7575C318.048 51.2875 316.331 50.9401 314.614 50.9401C305.582 50.9401 304.437 56.1921 304.437 63.876V80H292.564V41.4373Z" />
<path d="M283.96 20H272.087V79.9796H283.96V20Z" />
<path d="M234.362 59.3597L221.529 41.4373H235.507L242.353 51.921L248.933 41.4373H262.135L249.689 59.3597L264.526 80H250.445L241.985 67.1458L233.034 80H219.056L234.362 59.3597Z" />
<path d="M199.866 41.4373H211.658V80H199.866V41.4373ZM205.772 22.391C209.594 22.391 212.721 25.4769 212.721 29.2779C212.721 33.079 209.594 36.2057 205.772 36.2057C201.971 36.2057 198.845 33.079 198.845 29.2779C198.824 25.4769 201.951 22.391 205.772 22.391Z" />
<path d="M160.772 49.3665L133 23.3719V80H146.12V53.1063L160.486 66.4101L175.139 53.1267V80H188.259V23.2902L160.772 49.3665Z" />
</svg>